<?xml version="1.0" encoding="UTF-8" standalone="no"?>
<!-- Generated by SVGo -->

<svg
   xmlns:dc="http://purl.org/dc/elements/1.1/"
   xmlns:cc="http://creativecommons.org/ns#"
   xmlns:rdf="http://www.w3.org/1999/02/22-rdf-syntax-ns#"
   xmlns:svg="http://www.w3.org/2000/svg"
   xmlns="http://www.w3.org/2000/svg"
   xmlns:sodipodi="http://sodipodi.sourceforge.net/DTD/sodipodi-0.dtd"
   xmlns:inkscape="http://www.inkscape.org/namespaces/inkscape"
   width="307.902mm"
   height="117.402mm"
   viewBox="0.000 0.000 307.902 117.402"
   version="1.1"
   id="svg22"
   sodipodi:docname="YAS65 Acrylic Top Plate.svg"
   inkscape:version="0.92.1 r15371">
  <metadata
     id="metadata28">
    <rdf:RDF>
      <cc:Work
         rdf:about="">
        <dc:format>image/svg+xml</dc:format>
        <dc:type
           rdf:resource="http://purl.org/dc/dcmitype/StillImage" />
        <dc:title></dc:title>
      </cc:Work>
    </rdf:RDF>
  </metadata>
  <defs
     id="defs26" />
  <sodipodi:namedview
     pagecolor="#ffffff"
     bordercolor="#666666"
     borderopacity="1"
     objecttolerance="10"
     gridtolerance="10"
     guidetolerance="10"
     inkscape:pageopacity="0"
     inkscape:pageshadow="2"
     inkscape:window-width="1920"
     inkscape:window-height="1027"
     id="namedview24"
     showgrid="false"
     showguides="true"
     inkscape:guide-bbox="true"
     inkscape:zoom="0.5"
     inkscape:cx="-588.28977"
     inkscape:cy="334.00118"
     inkscape:window-x="1192"
     inkscape:window-y="712"
     inkscape:window-maximized="1"
     inkscape:current-layer="svg22"
     inkscape:measure-start="42.1172,401.504"
     inkscape:measure-end="41.4531,402.277" />
  <polygon
     points="300.902,5.001 301.058,5.007 301.214,5.025 301.368,5.056 301.520,5.098 301.667,5.153 301.809,5.218 301.946,5.295 302.077,5.382 302.200,5.480 302.316,5.586 302.422,5.702 302.520,5.825 302.607,5.956 302.684,6.093 302.749,6.235 302.804,6.382 302.846,6.534 302.877,6.688 302.895,6.844 302.902,7.001 302.902,110.402 302.895,110.558 302.877,110.714 302.846,110.868 302.804,111.020 302.749,111.167 302.684,111.309 302.607,111.446 302.520,111.577 302.422,111.700 302.316,111.816 302.200,111.922 302.077,112.020 301.946,112.107 301.809,112.184 301.667,112.249 301.520,112.304 301.368,112.346 301.214,112.377 301.058,112.395 300.901,112.401 7.001,112.402 6.844,112.395 6.688,112.377 6.534,112.346 6.382,112.304 6.235,112.249 6.093,112.184 5.956,112.107 5.825,112.020 5.702,111.922 5.586,111.816 5.480,111.700 5.382,111.577 5.295,111.446 5.218,111.309 5.153,111.167 5.098,111.020 5.056,110.868 5.025,110.714 5.007,110.558 5.000,110.402 5.001,7.001 5.007,6.844 5.025,6.688 5.056,6.534 5.098,6.382 5.153,6.235 5.218,6.093 5.295,5.956 5.382,5.825 5.480,5.702 5.586,5.586 5.702,5.480 5.825,5.382 5.956,5.295 6.093,5.218 6.235,5.153 6.382,5.098 6.534,5.056 6.688,5.025 6.844,5.007 7.001,5.000"
     style="fill:#ffffff;stroke-width:0.01;stroke:#0000f2;stroke-miterlimit:4;stroke-dasharray:none;stroke-opacity:1"
     id="polygon2" />
  <polygon
     points="299.038,108.753 298.899,109.025 298.852,109.327 298.899,109.628 299.038,109.9 299.253,110.115 299.525,110.254 299.827,110.302 300.128,110.254 300.4,110.115 300.615,109.9 300.754,109.628 300.802,109.327 300.754,109.025 300.615,108.753 300.4,108.538 300.128,108.399 299.827,108.352 299.525,108.399 299.253,108.538 "
     style="fill:#ffffff;stroke:#0000f2;stroke-width:0.00661804;stroke-miterlimit:4;stroke-dasharray:none;stroke-opacity:1"
     id="polygon4"
     transform="matrix(1.5109177,0,0,1.5111243,-153.18693,-55.879691)" />
  <polygon
     points="201.787,108.753 201.649,109.025 201.601,109.327 201.649,109.628 201.787,109.9 202.003,110.115 202.275,110.254 202.576,110.302 202.877,110.254 203.149,110.115 203.365,109.9 203.503,109.628 203.551,109.327 203.503,109.025 203.365,108.753 203.149,108.538 202.877,108.399 202.576,108.352 202.275,108.399 202.003,108.538 "
     style="fill:#ffffff;stroke:#0000f2;stroke-width:0.00661811;stroke-miterlimit:4;stroke-dasharray:none;stroke-opacity:1"
     id="polygon6"
     transform="matrix(1.5108927,0,0,1.5111204,-103.4946,-55.879259)" />
  <polygon
     points="104.537,108.753 104.399,109.025 104.351,109.327 104.399,109.628 104.537,109.9 104.753,110.115 105.025,110.254 105.326,110.302 105.627,110.254 105.899,110.115 106.115,109.9 106.253,109.628 106.301,109.327 106.253,109.025 106.115,108.753 105.899,108.538 105.627,108.399 105.326,108.352 105.025,108.399 104.753,108.538 "
     style="fill:#ffffff;stroke:#0000f2;stroke-width:0.00661811;stroke-miterlimit:4;stroke-dasharray:none;stroke-opacity:1"
     id="polygon8"
     transform="matrix(1.5108927,0,0,1.5111204,-53.810287,-55.879259)" />
  <polygon
     points="7.287,108.753 7.148,109.025 7.101,109.327 7.148,109.628 7.287,109.9 7.502,110.115 7.774,110.254 8.075,110.302 8.377,110.254 8.649,110.115 8.864,109.9 9.003,109.628 9.051,109.327 9.003,109.025 8.864,108.753 8.649,108.538 8.377,108.399 8.075,108.352 7.774,108.399 7.502,108.538 "
     style="fill:#ffffff;stroke:#0000f2;stroke-width:0.00661804;stroke-miterlimit:4;stroke-dasharray:none;stroke-opacity:1"
     id="polygon10"
     transform="matrix(1.5109177,0,0,1.5111243,-4.1261716,-55.879691)" />
  <path
     style="fill:#ffffff;stroke:#0000f2;stroke-width:0.01;stroke-miterlimit:4;stroke-dasharray:none;stroke-opacity:1"
     d="m 11.075,12.09446 c 4.74e-4,27.312642 -10e-4,47.907818 -10e-4,73.991852 0.0071,1.28548 -0.09423,1.190688 0.781375,1.190688 H 23.576 c 1.880844,0.03465 1.786,-0.09434 1.786,1.190625 v 15.626955 c 0,2.32721 -0.09532,2.23242 2.009195,2.23242 H 280.5298 c 2.10308,0 2.0092,0.0948 2.0092,-2.23242 V 88.467625 c 0,-1.284969 -0.095,-1.190625 1.786,-1.190625 h 11.72063 c 0.87578,0 0.77207,0.09479 0.78137,-1.190656 V 12.09446 c 0,-0.642196 3.6e-4,-1.01946 -0.55811,-1.01946 H 11.694087 c -0.619237,0 -0.619087,0.367978 -0.619087,1.01946 z"
     id="polygon12"
     inkscape:connector-curvature="0"
     sodipodi:nodetypes="ccccccccccccccccc" />
  <polygon
     points="7.287,7.502 7.148,7.774 7.101,8.075 7.148,8.377 7.287,8.649 7.502,8.864 7.774,9.003 8.075,9.051 8.377,9.003 8.649,8.864 8.864,8.649 9.003,8.377 9.051,8.075 9.003,7.774 8.864,7.502 8.649,7.287 8.377,7.148 8.075,7.101 7.774,7.148 7.502,7.287 "
     style="fill:#ffffff;stroke:#0000f2;stroke-width:0.00661804;stroke-miterlimit:4;stroke-dasharray:none;stroke-opacity:1"
     id="polygon14"
     transform="matrix(1.5109177,0,0,1.5111243,-4.1261716,-4.1278402)" />
  <polygon
     points="104.537,7.502 104.399,7.774 104.351,8.075 104.399,8.377 104.537,8.649 104.753,8.864 105.025,9.003 105.326,9.05 105.627,9.003 105.899,8.864 106.115,8.649 106.253,8.377 106.301,8.075 106.253,7.774 106.115,7.502 105.899,7.287 105.627,7.148 105.326,7.101 105.025,7.148 104.753,7.287 "
     style="fill:#ffffff;stroke:#0000f2;stroke-width:0.00661635;stroke-miterlimit:4;stroke-dasharray:none;stroke-opacity:1"
     id="polygon16"
     transform="matrix(1.5108927,0,0,1.5119208,-53.810287,-4.1340167)" />
  <polygon
     points="201.787,7.502 201.649,7.774 201.601,8.075 201.649,8.377 201.787,8.649 202.003,8.864 202.275,9.003 202.576,9.05 202.877,9.003 203.149,8.864 203.365,8.649 203.503,8.377 203.551,8.075 203.503,7.774 203.365,7.502 203.149,7.287 202.877,7.148 202.576,7.101 202.275,7.148 202.003,7.287 "
     style="fill:#ffffff;stroke:#0000f2;stroke-width:0.00661635;stroke-miterlimit:4;stroke-dasharray:none;stroke-opacity:1"
     id="polygon18"
     transform="matrix(1.5108927,0,0,1.5119208,-103.4946,-4.1340167)" />
  <polygon
     points="299.038,7.502 298.899,7.774 298.852,8.075 298.899,8.377 299.038,8.649 299.253,8.864 299.525,9.003 299.827,9.05 300.128,9.003 300.4,8.864 300.615,8.649 300.754,8.377 300.802,8.075 300.754,7.774 300.615,7.502 300.4,7.287 300.128,7.148 299.827,7.101 299.525,7.148 299.253,7.287 "
     style="fill:#ffffff;stroke:#0000f2;stroke-width:0.00661629;stroke-miterlimit:4;stroke-dasharray:none;stroke-opacity:1"
     id="polygon20"
     transform="matrix(1.5109177,0,0,1.5119247,-153.18693,-4.1340479)" />
</svg>
