<?xml version="1.0"?>
<!-- Generated by SVGo -->
<svg width="307.902mm" height="117.402mm"
     viewBox="0.000 0.000 307.902 117.402"
     xmlns="http://www.w3.org/2000/svg" 
     xmlns:xlink="http://www.w3.org/1999/xlink">
<polygon points="300.902,5.001 301.058,5.007 301.214,5.025 301.368,5.056 301.520,5.098 301.667,5.153 301.809,5.218 301.946,5.295 302.077,5.382 302.200,5.480 302.316,5.586 302.422,5.702 302.520,5.825 302.607,5.956 302.684,6.093 302.749,6.235 302.804,6.382 302.846,6.534 302.877,6.688 302.895,6.844 302.902,7.001 302.902,110.402 302.895,110.558 302.877,110.714 302.846,110.868 302.804,111.020 302.749,111.167 302.684,111.309 302.607,111.446 302.520,111.577 302.422,111.700 302.316,111.816 302.200,111.922 302.077,112.020 301.946,112.107 301.809,112.184 301.667,112.249 301.520,112.304 301.368,112.346 301.214,112.377 301.058,112.395 300.901,112.401 7.001,112.402 6.844,112.395 6.688,112.377 6.534,112.346 6.382,112.304 6.235,112.249 6.093,112.184 5.956,112.107 5.825,112.020 5.702,111.922 5.586,111.816 5.480,111.700 5.382,111.577 5.295,111.446 5.218,111.309 5.153,111.167 5.098,111.020 5.056,110.868 5.025,110.714 5.007,110.558 5.000,110.402 5.001,7.001 5.007,6.844 5.025,6.688 5.056,6.534 5.098,6.382 5.153,6.235 5.218,6.093 5.295,5.956 5.382,5.825 5.480,5.702 5.586,5.586 5.702,5.480 5.825,5.382 5.956,5.295 6.093,5.218 6.235,5.153 6.382,5.098 6.534,5.056 6.688,5.025 6.844,5.007 7.001,5.000" style="fill:none;stroke-width:0.010000mm;stroke:Blue"/>
<polygon points="299.348,107.852 298.915,108.073 298.573,108.415 298.352,108.848 298.277,109.327 298.352,109.805 298.573,110.238 298.915,110.580 299.348,110.801 299.827,110.877 300.305,110.801 300.738,110.580 301.080,110.238 301.301,109.805 301.377,109.327 301.301,108.848 301.080,108.415 300.738,108.073 300.305,107.852 299.827,107.777" style="fill:none;stroke-width:0.010000mm;stroke:Blue"/>
<polygon points="202.097,107.852 201.665,108.073 201.322,108.415 201.102,108.848 201.026,109.327 201.102,109.805 201.322,110.238 201.665,110.580 202.097,110.801 202.576,110.877 203.055,110.801 203.487,110.580 203.830,110.238 204.050,109.805 204.126,109.327 204.050,108.848 203.830,108.415 203.487,108.073 203.055,107.852 202.576,107.777" style="fill:none;stroke-width:0.010000mm;stroke:Blue"/>
<polygon points="104.847,107.852 104.415,108.073 104.072,108.415 103.852,108.848 103.776,109.327 103.852,109.805 104.072,110.238 104.415,110.580 104.847,110.801 105.326,110.877 105.805,110.801 106.237,110.580 106.580,110.238 106.800,109.805 106.876,109.327 106.800,108.848 106.580,108.415 106.237,108.073 105.805,107.852 105.326,107.777" style="fill:none;stroke-width:0.010000mm;stroke:Blue"/>
<polygon points="7.597,107.852 7.164,108.073 6.822,108.415 6.601,108.848 6.526,109.327 6.601,109.805 6.822,110.238 7.164,110.580 7.597,110.801 8.075,110.877 8.554,110.801 8.987,110.580 9.329,110.238 9.550,109.805 9.626,109.327 9.550,108.848 9.329,108.415 8.987,108.073 8.554,107.852 8.075,107.777" style="fill:none;stroke-width:0.010000mm;stroke:Blue"/>
<polygon points="11.151,11.150 11.151,106.252 296.752,106.252 296.752,11.150" style="fill:none;stroke-width:0.010000mm;stroke:Blue"/>
<polygon points="104.847,6.601 104.415,6.822 104.072,7.164 103.852,7.597 103.776,8.075 103.852,8.554 104.072,8.987 104.415,9.329 104.847,9.550 105.326,9.626 105.805,9.550 106.237,9.329 106.580,8.987 106.800,8.554 106.876,8.075 106.800,7.597 106.580,7.164 106.237,6.822 105.805,6.601 105.326,6.525" style="fill:none;stroke-width:0.010000mm;stroke:Blue"/>
<polygon points="202.097,6.601 201.665,6.822 201.322,7.164 201.102,7.597 201.026,8.075 201.102,8.554 201.322,8.987 201.665,9.329 202.097,9.550 202.576,9.626 203.055,9.550 203.487,9.329 203.830,8.987 204.050,8.554 204.126,8.075 204.050,7.597 203.830,7.164 203.487,6.822 203.055,6.601 202.576,6.525" style="fill:none;stroke-width:0.010000mm;stroke:Blue"/>
<polygon points="299.348,6.601 298.915,6.822 298.573,7.164 298.352,7.597 298.277,8.075 298.352,8.554 298.573,8.987 298.915,9.329 299.348,9.550 299.827,9.626 300.305,9.550 300.738,9.329 301.080,8.987 301.301,8.554 301.377,8.075 301.301,7.597 301.080,7.164 300.738,6.822 300.305,6.601 299.827,6.525" style="fill:none;stroke-width:0.010000mm;stroke:Blue"/>
<polygon points="7.597,6.601 7.164,6.822 6.822,7.164 6.601,7.597 6.526,8.075 6.601,8.554 6.822,8.987 7.164,9.329 7.597,9.550 8.075,9.626 8.554,9.550 8.987,9.329 9.329,8.987 9.550,8.554 9.626,8.075 9.550,7.597 9.329,7.164 8.987,6.822 8.554,6.601 8.075,6.526" style="fill:none;stroke-width:0.010000mm;stroke:Blue"/>
</svg>
