<?xml version="1.0" encoding="UTF-8" standalone="no"?>
<!-- Generated by SVGo -->

<svg
   xmlns:dc="http://purl.org/dc/elements/1.1/"
   xmlns:cc="http://creativecommons.org/ns#"
   xmlns:rdf="http://www.w3.org/1999/02/22-rdf-syntax-ns#"
   xmlns:svg="http://www.w3.org/2000/svg"
   xmlns="http://www.w3.org/2000/svg"
   xmlns:sodipodi="http://sodipodi.sourceforge.net/DTD/sodipodi-0.dtd"
   xmlns:inkscape="http://www.inkscape.org/namespaces/inkscape"
   width="307.902mm"
   height="117.402mm"
   viewBox="0.000 0.000 307.902 117.402"
   version="1.1"
   id="svg20"
   sodipodi:docname="YAS65 Steel Bottom Plate.svg"
   inkscape:version="0.92.1 r15371">
  <metadata
     id="metadata26">
    <rdf:RDF>
      <cc:Work
         rdf:about="">
        <dc:format>image/svg+xml</dc:format>
        <dc:type
           rdf:resource="http://purl.org/dc/dcmitype/StillImage" />
      </cc:Work>
    </rdf:RDF>
  </metadata>
  <defs
     id="defs24" />
  <sodipodi:namedview
     pagecolor="#ffffff"
     bordercolor="#666666"
     borderopacity="1"
     objecttolerance="10"
     gridtolerance="10"
     guidetolerance="10"
     inkscape:pageopacity="0"
     inkscape:pageshadow="2"
     inkscape:window-width="1920"
     inkscape:window-height="1027"
     id="namedview22"
     showgrid="false"
     inkscape:zoom="1"
     inkscape:cx="556.21144"
     inkscape:cy="284.24714"
     inkscape:window-x="1192"
     inkscape:window-y="712"
     inkscape:window-maximized="1"
     inkscape:current-layer="layer3"
     inkscape:measure-start="126.492,359.692"
     inkscape:measure-end="1034.94,359.692"
     inkscape:lockguides="false"
     showguides="true"
     inkscape:guide-bbox="true" />
  <g
     inkscape:groupmode="layer"
     id="layer3"
     inkscape:label="BOT"
     style="display:inline">
    <polygon
       points="301.809,5.218 301.946,5.295 302.077,5.382 302.2,5.48 302.316,5.586 302.422,5.702 302.52,5.825 302.607,5.956 302.684,6.093 302.749,6.235 302.804,6.382 302.846,6.534 302.877,6.688 302.895,6.844 302.902,7.001 302.902,110.402 302.895,110.558 302.877,110.714 302.846,110.868 302.804,111.02 302.749,111.167 302.684,111.309 302.607,111.446 302.52,111.577 302.422,111.7 302.316,111.816 302.2,111.922 302.077,112.02 301.946,112.107 301.809,112.184 301.667,112.249 301.52,112.304 301.368,112.346 301.214,112.377 301.058,112.395 300.901,112.401 7.001,112.402 6.844,112.395 6.688,112.377 6.534,112.346 6.382,112.304 6.235,112.249 6.093,112.184 5.956,112.107 5.825,112.02 5.702,111.922 5.586,111.816 5.48,111.7 5.382,111.577 5.295,111.446 5.218,111.309 5.153,111.167 5.098,111.02 5.056,110.868 5.025,110.714 5.007,110.558 5,110.402 5.001,7.001 5.007,6.844 5.025,6.688 5.056,6.534 5.098,6.382 5.153,6.235 5.218,6.093 5.295,5.956 5.382,5.825 5.48,5.702 5.586,5.586 5.702,5.48 5.825,5.382 5.956,5.295 6.093,5.218 6.235,5.153 6.382,5.098 6.534,5.056 6.688,5.025 6.844,5.007 7.001,5 300.902,5.001 301.058,5.007 301.214,5.025 301.368,5.056 301.52,5.098 301.667,5.153 "
       style="fill:none;stroke:#000000;stroke-width:0.05mm"
       id="polygon2" />
    <polygon
       points="299.038,109.9 299.253,110.115 299.525,110.254 299.827,110.302 300.128,110.254 300.4,110.115 300.615,109.9 300.754,109.628 300.802,109.327 300.754,109.025 300.615,108.753 300.4,108.538 300.128,108.399 299.827,108.352 299.525,108.399 299.253,108.538 299.038,108.753 298.899,109.025 298.852,109.327 298.899,109.628 "
       style="fill:none;stroke:#000000;stroke-width:0.05mm"
       id="polygon4" />
    <polygon
       points="201.787,109.9 202.003,110.115 202.275,110.254 202.576,110.302 202.877,110.254 203.149,110.115 203.365,109.9 203.503,109.628 203.551,109.327 203.503,109.025 203.365,108.753 203.149,108.538 202.877,108.399 202.576,108.352 202.275,108.399 202.003,108.538 201.787,108.753 201.649,109.025 201.601,109.327 201.649,109.628 "
       style="fill:none;stroke:#000000;stroke-width:0.05mm"
       id="polygon6" />
    <polygon
       points="104.537,109.9 104.753,110.115 105.025,110.254 105.326,110.302 105.627,110.254 105.899,110.115 106.115,109.9 106.253,109.628 106.301,109.327 106.253,109.025 106.115,108.753 105.899,108.538 105.627,108.399 105.326,108.352 105.025,108.399 104.753,108.538 104.537,108.753 104.399,109.025 104.351,109.327 104.399,109.628 "
       style="fill:none;stroke:#000000;stroke-width:0.05mm"
       id="polygon8" />
    <polygon
       points="7.287,109.9 7.502,110.115 7.774,110.254 8.075,110.302 8.377,110.254 8.649,110.115 8.864,109.9 9.003,109.628 9.051,109.327 9.003,109.025 8.864,108.753 8.649,108.538 8.377,108.399 8.075,108.352 7.774,108.399 7.502,108.538 7.287,108.753 7.148,109.025 7.101,109.327 7.148,109.628 "
       style="fill:none;stroke:#000000;stroke-width:0.05mm"
       id="polygon10" />
    <polygon
       points="7.287,8.649 7.502,8.864 7.774,9.003 8.075,9.051 8.377,9.003 8.649,8.864 8.864,8.649 9.003,8.377 9.051,8.075 9.003,7.774 8.864,7.502 8.649,7.287 8.377,7.148 8.075,7.101 7.774,7.148 7.502,7.287 7.287,7.502 7.148,7.774 7.101,8.075 7.148,8.377 "
       style="fill:none;stroke:#000000;stroke-width:0.05mm"
       id="polygon12" />
    <polygon
       points="104.537,8.649 104.753,8.864 105.025,9.003 105.326,9.05 105.627,9.003 105.899,8.864 106.115,8.649 106.253,8.377 106.301,8.075 106.253,7.774 106.115,7.502 105.899,7.287 105.627,7.148 105.326,7.101 105.025,7.148 104.753,7.287 104.537,7.502 104.399,7.774 104.351,8.075 104.399,8.377 "
       style="fill:none;stroke:#000000;stroke-width:0.05mm"
       id="polygon14" />
    <polygon
       points="201.787,8.649 202.003,8.864 202.275,9.003 202.576,9.05 202.877,9.003 203.149,8.864 203.365,8.649 203.503,8.377 203.551,8.075 203.503,7.774 203.365,7.502 203.149,7.287 202.877,7.148 202.576,7.101 202.275,7.148 202.003,7.287 201.787,7.502 201.649,7.774 201.601,8.075 201.649,8.377 "
       style="fill:none;stroke:#000000;stroke-width:0.05mm"
       id="polygon16" />
    <polygon
       points="299.038,8.649 299.253,8.864 299.525,9.003 299.827,9.05 300.128,9.003 300.4,8.864 300.615,8.649 300.754,8.377 300.802,8.075 300.754,7.774 300.615,7.502 300.4,7.287 300.128,7.148 299.827,7.101 299.525,7.148 299.253,7.287 299.038,7.502 298.899,7.774 298.852,8.075 298.899,8.377 "
       style="fill:none;stroke:#000000;stroke-width:0.05mm"
       id="polygon18" />
    <polygon
       transform="translate(6.0740001,6.0760001)"
       id="polygon442-1"
       style="display:inline;fill:none;stroke:#000000;stroke-width:0.05mm"
       points="30.275,34.153 30.577,34.201 30.878,34.153 31.15,34.014 31.365,33.799 31.504,33.528 31.552,33.227 31.504,32.924 31.365,32.653 31.15,32.436 30.878,32.299 30.577,32.251 30.275,32.299 30.003,32.436 29.788,32.653 29.649,32.924 29.602,33.227 29.649,33.528 29.788,33.799 30.003,34.014 " />
    <polygon
       transform="translate(6.0740001,6.0760001)"
       id="polygon412-0"
       style="display:inline;fill:none;stroke:#000000;stroke-width:0.05mm"
       points="133.274,53.553 133.577,53.602 133.877,53.553 134.149,53.415 134.365,53.2 134.503,52.927 134.551,52.626 134.503,52.325 134.365,52.052 134.149,51.838 133.877,51.698 133.577,51.651 133.274,51.698 133.002,51.838 132.788,52.052 132.649,52.325 132.601,52.626 132.649,52.927 132.788,53.2 133.002,53.415 " />
    <polygon
       transform="translate(6.0740001,6.0760001)"
       id="polygon358-9"
       style="display:inline;fill:none;stroke:#000000;stroke-width:0.05mm"
       points="195.575,91.453 195.877,91.501 196.178,91.453 196.45,91.314 196.664,91.099 196.803,90.828 196.851,90.526 196.803,90.224 196.664,89.953 196.45,89.737 196.178,89.599 195.877,89.551 195.575,89.599 195.303,89.737 195.087,89.953 194.949,90.224 194.901,90.526 194.949,90.828 195.087,91.099 195.303,91.314 " />
    <polygon
       transform="translate(6.0740001,6.0760001)"
       id="polygon444-8"
       style="display:inline;fill:none;stroke:#000000;stroke-width:0.05mm"
       points="265.125,34.153 265.426,34.201 265.727,34.153 266,34.014 266.214,33.799 266.353,33.528 266.401,33.227 266.353,32.924 266.214,32.653 266,32.436 265.727,32.299 265.426,32.251 265.125,32.299 264.852,32.436 264.637,32.653 264.498,32.924 264.452,33.227 264.498,33.528 264.637,33.799 264.852,34.014 " />
    <polygon
       transform="translate(28.469815,34.672038)"
       id="polygon444-0"
       style="display:inline;fill:none;stroke:#000000;stroke-width:0.05mm"
       points="266,32.436 265.727,32.299 265.426,32.251 265.125,32.299 264.852,32.436 264.637,32.653 264.498,32.924 264.452,33.227 264.498,33.528 264.637,33.799 264.852,34.014 265.125,34.153 265.426,34.201 265.727,34.153 266,34.014 266.214,33.799 266.353,33.528 266.401,33.227 266.353,32.924 266.214,32.653 " />
    <polygon
       transform="translate(-251.3175,34.677354)"
       id="polygon444-4"
       style="display:inline;fill:none;stroke:#000000;stroke-width:0.05mm"
       points="265.727,34.153 266,34.014 266.214,33.799 266.353,33.528 266.401,33.227 266.353,32.924 266.214,32.653 266,32.436 265.727,32.299 265.426,32.251 265.125,32.299 264.852,32.436 264.637,32.653 264.498,32.924 264.452,33.227 264.498,33.528 264.637,33.799 264.852,34.014 265.125,34.153 265.426,34.201 " />
    <polygon
       transform="matrix(2.055743,0,0,2.0557154,-29.389623,-46.070362)"
       id="polygon442-1-7"
       style="display:inline;fill:none;stroke:#000000;stroke-width:0.02432227mm"
       points="30.003,32.436 29.788,32.653 29.649,32.924 29.602,33.227 29.649,33.528 29.788,33.799 30.003,34.014 30.275,34.153 30.577,34.201 30.878,34.153 31.15,34.014 31.365,33.799 31.504,33.528 31.552,33.227 31.504,32.924 31.365,32.653 31.15,32.436 30.878,32.299 30.577,32.251 30.275,32.299 " />
    <polygon
       transform="matrix(2.0568228,0,0,2.0557107,-272.10712,-46.070212)"
       id="polygon444-8-1"
       style="display:inline;fill:none;stroke:#000000;stroke-width:0.02431591mm"
       points="265.727,32.299 265.426,32.251 265.125,32.299 264.852,32.436 264.637,32.653 264.498,32.924 264.452,33.227 264.498,33.528 264.637,33.799 264.852,34.014 265.125,34.153 265.426,34.201 265.727,34.153 266,34.014 266.214,33.799 266.353,33.528 266.401,33.227 266.353,32.924 266.214,32.653 266,32.436 " />
    <polygon
       transform="matrix(2.0568228,0,0,2.0557107,-392.28782,-46.070212)"
       id="polygon444-8-1-2"
       style="display:inline;fill:none;stroke:#000000;stroke-width:0.02431591mm"
       points="264.498,32.924 264.452,33.227 264.498,33.528 264.637,33.799 264.852,34.014 265.125,34.153 265.426,34.201 265.727,34.153 266,34.014 266.214,33.799 266.353,33.528 266.401,33.227 266.353,32.924 266.214,32.653 266,32.436 265.727,32.299 265.426,32.251 265.125,32.299 264.852,32.436 264.637,32.653 " />
  </g>
</svg>
