<?xml version="1.0"?>
<!-- Generated by SVGo -->
<svg width="295.752mm" height="105.252mm"
     viewBox="0.000 0.000 295.752 105.252"
     xmlns="http://www.w3.org/2000/svg" 
     xmlns:xlink="http://www.w3.org/1999/xlink">
<polygon points="290.639,60.802 285.738,60.802 285.421,60.852 285.137,60.996 284.909,61.224 284.764,61.508 284.714,61.826 284.714,61.828 284.764,62.144 284.909,62.428 285.137,62.656 285.421,62.800 285.738,62.852 290.639,62.852 290.639,100.164 5.114,100.164 5.114,62.852 10.014,62.852 10.331,62.800 10.616,62.656 10.843,62.428 10.988,62.144 11.038,61.828 11.038,61.826 10.988,61.508 10.843,61.224 10.616,60.996 10.331,60.852 10.014,60.802 5.114,60.802 5.114,5.088 290.639,5.088" style="fill:none;stroke-width:0.050000mm;stroke:black"/>
<polygon points="162.382,83.800 162.382,84.800 161.582,84.800 161.582,87.751 162.382,87.751 162.382,88.501 160.707,88.501 160.707,85.270 154.106,85.270 154.106,88.501 153.281,88.501 153.281,91.150 154.106,91.150 154.106,97.420 155.832,97.420 155.832,98.620 158.981,98.620 158.981,97.420 160.707,97.420 160.707,92.950 162.382,92.950 162.382,93.700 161.582,93.700 161.582,96.650 162.382,96.650 162.382,97.650 176.231,97.650 176.231,96.650 177.031,96.650 177.031,93.700 176.231,93.700 176.231,92.950 177.906,92.950 177.906,97.420 179.632,97.420 179.632,98.620 182.781,98.620 182.781,97.420 184.507,97.420 184.507,91.150 185.332,91.150 185.332,88.501 184.507,88.501 184.507,85.270 177.906,85.270 177.906,88.501 176.231,88.501 176.231,87.751 177.031,87.751 177.031,84.800 176.231,84.800 176.231,83.800" style="fill:none;stroke-width:0.050000mm;stroke:black"/>
<polygon points="90.945,83.800 90.945,84.800 90.145,84.800 90.145,87.751 90.945,87.751 90.945,88.501 89.270,88.501 89.270,85.270 82.669,85.270 82.669,88.501 81.844,88.501 81.844,91.150 82.669,91.150 82.669,97.420 84.395,97.420 84.395,98.620 87.544,98.620 87.544,97.420 89.270,97.420 89.270,92.950 90.945,92.950 90.945,93.700 90.145,93.700 90.145,96.650 90.945,96.650 90.945,97.650 104.794,97.650 104.794,96.650 105.594,96.650 105.594,93.700 104.794,93.700 104.794,92.950 106.469,92.950 106.469,97.420 108.195,97.420 108.195,98.620 111.344,98.620 111.344,97.420 113.070,97.420 113.070,91.150 113.895,91.150 113.895,88.501 113.070,88.501 113.070,85.270 106.469,85.270 106.469,88.501 104.794,88.501 104.794,87.751 105.594,87.751 105.594,84.800 104.794,84.800 104.794,83.800" style="fill:none;stroke-width:0.050000mm;stroke:black"/>
<polygon points="21.889,83.800 21.889,84.800 21.089,84.800 21.089,87.751 21.889,87.751 21.889,93.700 21.089,93.700 21.089,96.650 21.889,96.650 21.889,97.650 35.739,97.650 35.739,96.650 36.538,96.650 36.538,93.700 35.739,93.700 35.739,87.751 36.538,87.751 36.538,84.800 35.739,84.800 35.739,83.800" style="fill:none;stroke-width:0.050000mm;stroke:black"/>
<polygon points="40.939,83.800 40.939,84.800 40.139,84.800 40.139,87.751 40.939,87.751 40.939,93.700 40.139,93.700 40.139,96.650 40.939,96.650 40.939,97.650 54.788,97.650 54.788,96.650 55.589,96.650 55.589,93.700 54.788,93.700 54.788,87.751 55.589,87.751 55.589,84.800 54.788,84.800 54.788,83.800" style="fill:none;stroke-width:0.050000mm;stroke:black"/>
<polygon points="59.989,83.800 59.989,84.800 59.188,84.800 59.188,87.751 59.989,87.751 59.989,93.700 59.188,93.700 59.188,96.650 59.989,96.650 59.989,97.650 73.838,97.650 73.838,96.650 74.638,96.650 74.638,93.700 73.838,93.700 73.838,87.751 74.638,87.751 74.638,84.800 73.838,84.800 73.838,83.800" style="fill:none;stroke-width:0.050000mm;stroke:black"/>
<polygon points="124.282,83.800 124.282,84.800 123.481,84.800 123.481,87.751 124.282,87.751 124.282,93.700 123.481,93.700 123.481,96.650 124.282,96.650 124.282,97.650 138.132,97.650 138.132,96.650 138.932,96.650 138.932,93.700 138.132,93.700 138.132,87.751 138.932,87.751 138.932,84.800 138.132,84.800 138.132,83.800" style="fill:none;stroke-width:0.050000mm;stroke:black"/>
<polygon points="200.481,83.800 200.481,84.800 199.682,84.800 199.682,87.751 200.481,87.751 200.481,93.700 199.682,93.700 199.682,96.650 200.481,96.650 200.481,97.650 214.332,97.650 214.332,96.650 215.132,96.650 215.132,93.700 214.332,93.700 214.332,87.751 215.132,87.751 215.132,84.800 214.332,84.800 214.332,83.800" style="fill:none;stroke-width:0.050000mm;stroke:black"/>
<polygon points="221.913,83.800 221.913,84.800 221.113,84.800 221.113,87.751 221.913,87.751 221.913,93.700 221.113,93.700 221.113,96.650 221.913,96.650 221.913,97.650 235.764,97.650 235.764,96.650 236.563,96.650 236.563,93.700 235.764,93.700 235.764,87.751 236.563,87.751 236.563,84.800 235.764,84.800 235.764,83.800" style="fill:none;stroke-width:0.050000mm;stroke:black"/>
<polygon points="240.964,83.800 240.964,84.800 240.163,84.800 240.163,87.751 240.964,87.751 240.964,93.700 240.163,93.700 240.163,96.650 240.964,96.650 240.964,97.650 254.813,97.650 254.813,96.650 255.613,96.650 255.613,93.700 254.813,93.700 254.813,87.751 255.613,87.751 255.613,84.800 254.813,84.800 254.813,83.800" style="fill:none;stroke-width:0.050000mm;stroke:black"/>
<polygon points="260.012,83.800 260.012,84.800 259.212,84.800 259.212,87.751 260.012,87.751 260.012,93.700 259.212,93.700 259.212,96.650 260.012,96.650 260.012,97.650 273.863,97.650 273.863,96.650 274.663,96.650 274.663,93.700 273.863,93.700 273.863,87.751 274.663,87.751 274.663,84.800 273.863,84.800 273.863,83.800" style="fill:none;stroke-width:0.050000mm;stroke:black"/>
<polygon points="195.560,89.551 195.274,89.697 195.046,89.923 194.901,90.209 194.851,90.526 194.901,90.843 195.046,91.129 195.274,91.355 195.560,91.501 195.877,91.551 196.192,91.501 196.478,91.355 196.706,91.129 196.851,90.843 196.901,90.526 196.851,90.209 196.706,89.923 196.478,89.697 196.192,89.551 195.877,89.501" style="fill:none;stroke-width:0.050000mm;stroke:black"/>
<polygon points="19.507,64.751 19.507,65.751 18.707,65.751 18.707,68.700 19.507,68.700 19.507,69.450 17.832,69.450 17.832,66.221 11.232,66.221 11.232,69.450 10.407,69.450 10.407,72.100 11.232,72.100 11.232,78.370 12.957,78.370 12.957,79.570 16.107,79.570 16.107,78.370 17.832,78.370 17.832,73.900 19.507,73.900 19.507,74.650 18.707,74.650 18.707,77.600 19.507,77.600 19.507,78.600 33.357,78.600 33.357,77.600 34.157,77.600 34.157,74.650 33.357,74.650 33.357,73.900 35.032,73.900 35.032,78.370 36.757,78.370 36.757,79.570 39.907,79.570 39.907,78.370 41.632,78.370 41.632,72.100 42.457,72.100 42.457,69.450 41.632,69.450 41.632,66.221 35.032,66.221 35.032,69.450 33.357,69.450 33.357,68.700 34.157,68.700 34.157,65.751 33.357,65.751 33.357,64.751" style="fill:none;stroke-width:0.050000mm;stroke:black"/>
<polygon points="50.464,64.751 50.464,65.751 49.663,65.751 49.663,68.700 50.464,68.700 50.464,74.650 49.663,74.650 49.663,77.600 50.464,77.600 50.464,78.600 64.314,78.600 64.314,77.600 65.114,77.600 65.114,74.650 64.314,74.650 64.314,68.700 65.114,68.700 65.114,65.751 64.314,65.751 64.314,64.751" style="fill:none;stroke-width:0.050000mm;stroke:black"/>
<polygon points="69.514,64.751 69.514,65.751 68.713,65.751 68.713,68.700 69.514,68.700 69.514,74.650 68.713,74.650 68.713,77.600 69.514,77.600 69.514,78.600 83.364,78.600 83.364,77.600 84.163,77.600 84.163,74.650 83.364,74.650 83.364,68.700 84.163,68.700 84.163,65.751 83.364,65.751 83.364,64.751" style="fill:none;stroke-width:0.050000mm;stroke:black"/>
<polygon points="88.564,64.751 88.564,65.751 87.764,65.751 87.764,68.700 88.564,68.700 88.564,74.650 87.764,74.650 87.764,77.600 88.564,77.600 88.564,78.600 102.413,78.600 102.413,77.600 103.213,77.600 103.213,74.650 102.413,74.650 102.413,68.700 103.213,68.700 103.213,65.751 102.413,65.751 102.413,64.751" style="fill:none;stroke-width:0.050000mm;stroke:black"/>
<polygon points="107.614,64.751 107.614,65.751 106.814,65.751 106.814,68.700 107.614,68.700 107.614,74.650 106.814,74.650 106.814,77.600 107.614,77.600 107.614,78.600 121.463,78.600 121.463,77.600 122.263,77.600 122.263,74.650 121.463,74.650 121.463,68.700 122.263,68.700 122.263,65.751 121.463,65.751 121.463,64.751" style="fill:none;stroke-width:0.050000mm;stroke:black"/>
<polygon points="126.663,64.751 126.663,65.751 125.864,65.751 125.864,68.700 126.663,68.700 126.663,74.650 125.864,74.650 125.864,77.600 126.663,77.600 126.663,78.600 140.514,78.600 140.514,77.600 141.313,77.600 141.313,74.650 140.514,74.650 140.514,68.700 141.313,68.700 141.313,65.751 140.514,65.751 140.514,64.751" style="fill:none;stroke-width:0.050000mm;stroke:black"/>
<polygon points="145.714,64.751 145.714,65.751 144.913,65.751 144.913,68.700 145.714,68.700 145.714,74.650 144.913,74.650 144.913,77.600 145.714,77.600 145.714,78.600 159.563,78.600 159.563,77.600 160.363,77.600 160.363,74.650 159.563,74.650 159.563,68.700 160.363,68.700 160.363,65.751 159.563,65.751 159.563,64.751" style="fill:none;stroke-width:0.050000mm;stroke:black"/>
<polygon points="164.764,64.751 164.764,65.751 163.964,65.751 163.964,68.700 164.764,68.700 164.764,74.650 163.964,74.650 163.964,77.600 164.764,77.600 164.764,78.600 178.613,78.600 178.613,77.600 179.413,77.600 179.413,74.650 178.613,74.650 178.613,68.700 179.413,68.700 179.413,65.751 178.613,65.751 178.613,64.751" style="fill:none;stroke-width:0.050000mm;stroke:black"/>
<polygon points="183.813,64.751 183.813,65.751 183.014,65.751 183.014,68.700 183.813,68.700 183.813,74.650 183.014,74.650 183.014,77.600 183.813,77.600 183.813,78.600 197.663,78.600 197.663,77.600 198.464,77.600 198.464,74.650 197.663,74.650 197.663,68.700 198.464,68.700 198.464,65.751 197.663,65.751 197.663,64.751" style="fill:none;stroke-width:0.050000mm;stroke:black"/>
<polygon points="202.863,64.751 202.863,65.751 202.063,65.751 202.063,68.700 202.863,68.700 202.863,74.650 202.063,74.650 202.063,77.600 202.863,77.600 202.863,78.600 216.714,78.600 216.714,77.600 217.514,77.600 217.514,74.650 216.714,74.650 216.714,68.700 217.514,68.700 217.514,65.751 216.714,65.751 216.714,64.751" style="fill:none;stroke-width:0.050000mm;stroke:black"/>
<polygon points="221.913,64.751 221.913,65.751 221.113,65.751 221.113,68.700 221.913,68.700 221.913,74.650 221.113,74.650 221.113,77.600 221.913,77.600 221.913,78.600 235.764,78.600 235.764,77.600 236.563,77.600 236.563,74.650 235.764,74.650 235.764,68.700 236.563,68.700 236.563,65.751 235.764,65.751 235.764,64.751" style="fill:none;stroke-width:0.050000mm;stroke:black"/>
<polygon points="240.964,64.751 240.964,65.751 240.163,65.751 240.163,68.700 240.964,68.700 240.964,74.650 240.163,74.650 240.163,77.600 240.964,77.600 240.964,78.600 254.813,78.600 254.813,77.600 255.613,77.600 255.613,74.650 254.813,74.650 254.813,68.700 255.613,68.700 255.613,65.751 254.813,65.751 254.813,64.751" style="fill:none;stroke-width:0.050000mm;stroke:black"/>
<polygon points="267.156,64.751 267.156,65.751 266.356,65.751 266.356,68.700 267.156,68.700 267.156,74.650 266.356,74.650 266.356,77.600 267.156,77.600 267.156,78.600 281.006,78.600 281.006,77.600 281.806,77.600 281.806,74.650 281.006,74.650 281.006,68.700 281.806,68.700 281.806,65.751 281.006,65.751 281.006,64.751" style="fill:none;stroke-width:0.050000mm;stroke:black"/>
<polygon points="262.394,45.701 262.394,46.701 261.594,46.701 261.594,49.650 262.394,49.650 262.394,50.400 260.719,50.400 260.719,47.171 254.120,47.171 254.120,50.400 253.295,50.400 253.295,53.050 254.120,53.050 254.120,59.320 255.844,59.320 255.844,60.520 258.993,60.520 258.993,59.320 260.719,59.320 260.719,54.850 262.394,54.850 262.394,55.600 261.594,55.600 261.594,58.550 262.394,58.550 262.394,59.550 276.244,59.550 276.244,58.550 277.044,58.550 277.044,55.600 276.244,55.600 276.244,54.850 277.919,54.850 277.919,59.320 279.644,59.320 279.644,60.520 282.794,60.520 282.794,59.320 284.519,59.320 284.519,53.050 285.344,53.050 285.344,50.400 284.519,50.400 284.519,47.171 277.919,47.171 277.919,50.400 276.244,50.400 276.244,49.650 277.044,49.650 277.044,46.701 276.244,46.701 276.244,45.701" style="fill:none;stroke-width:0.050000mm;stroke:black"/>
<polygon points="14.745,45.701 14.745,46.701 13.945,46.701 13.945,49.650 14.745,49.650 14.745,55.600 13.945,55.600 13.945,58.550 14.745,58.550 14.745,59.550 28.595,59.550 28.595,58.550 29.395,58.550 29.395,55.600 28.595,55.600 28.595,49.650 29.395,49.650 29.395,46.701 28.595,46.701 28.595,45.701" style="fill:none;stroke-width:0.050000mm;stroke:black"/>
<polygon points="40.939,45.701 40.939,46.701 40.139,46.701 40.139,49.650 40.939,49.650 40.939,55.600 40.139,55.600 40.139,58.550 40.939,58.550 40.939,59.550 54.788,59.550 54.788,58.550 55.589,58.550 55.589,55.600 54.788,55.600 54.788,49.650 55.589,49.650 55.589,46.701 54.788,46.701 54.788,45.701" style="fill:none;stroke-width:0.050000mm;stroke:black"/>
<polygon points="59.989,45.701 59.989,46.701 59.188,46.701 59.188,49.650 59.989,49.650 59.989,55.600 59.188,55.600 59.188,58.550 59.989,58.550 59.989,59.550 73.838,59.550 73.838,58.550 74.638,58.550 74.638,55.600 73.838,55.600 73.838,49.650 74.638,49.650 74.638,46.701 73.838,46.701 73.838,45.701" style="fill:none;stroke-width:0.050000mm;stroke:black"/>
<polygon points="79.038,45.701 79.038,46.701 78.239,46.701 78.239,49.650 79.038,49.650 79.038,55.600 78.239,55.600 78.239,58.550 79.038,58.550 79.038,59.550 92.888,59.550 92.888,58.550 93.688,58.550 93.688,55.600 92.888,55.600 92.888,49.650 93.688,49.650 93.688,46.701 92.888,46.701 92.888,45.701" style="fill:none;stroke-width:0.050000mm;stroke:black"/>
<polygon points="98.088,45.701 98.088,46.701 97.288,46.701 97.288,49.650 98.088,49.650 98.088,55.600 97.288,55.600 97.288,58.550 98.088,58.550 98.088,59.550 111.938,59.550 111.938,58.550 112.737,58.550 112.737,55.600 111.938,55.600 111.938,49.650 112.737,49.650 112.737,46.701 111.938,46.701 111.938,45.701" style="fill:none;stroke-width:0.050000mm;stroke:black"/>
<polygon points="117.138,45.701 117.138,46.701 116.338,46.701 116.338,49.650 117.138,49.650 117.138,55.600 116.338,55.600 116.338,58.550 117.138,58.550 117.138,59.550 130.988,59.550 130.988,58.550 131.788,58.550 131.788,55.600 130.988,55.600 130.988,49.650 131.788,49.650 131.788,46.701 130.988,46.701 130.988,45.701" style="fill:none;stroke-width:0.050000mm;stroke:black"/>
<polygon points="136.188,45.701 136.188,46.701 135.389,46.701 135.389,49.650 136.188,49.650 136.188,55.600 135.389,55.600 135.389,58.550 136.188,58.550 136.188,59.550 150.038,59.550 150.038,58.550 150.839,58.550 150.839,55.600 150.038,55.600 150.038,49.650 150.839,49.650 150.839,46.701 150.038,46.701 150.038,45.701" style="fill:none;stroke-width:0.050000mm;stroke:black"/>
<polygon points="155.238,45.701 155.238,46.701 154.438,46.701 154.438,49.650 155.238,49.650 155.238,55.600 154.438,55.600 154.438,58.550 155.238,58.550 155.238,59.550 169.089,59.550 169.089,58.550 169.889,58.550 169.889,55.600 169.089,55.600 169.089,49.650 169.889,49.650 169.889,46.701 169.089,46.701 169.089,45.701" style="fill:none;stroke-width:0.050000mm;stroke:black"/>
<polygon points="174.288,45.701 174.288,46.701 173.488,46.701 173.488,49.650 174.288,49.650 174.288,55.600 173.488,55.600 173.488,58.550 174.288,58.550 174.288,59.550 188.139,59.550 188.139,58.550 188.938,58.550 188.938,55.600 188.139,55.600 188.139,49.650 188.938,49.650 188.938,46.701 188.139,46.701 188.139,45.701" style="fill:none;stroke-width:0.050000mm;stroke:black"/>
<polygon points="193.339,45.701 193.339,46.701 192.538,46.701 192.538,49.650 193.339,49.650 193.339,55.600 192.538,55.600 192.538,58.550 193.339,58.550 193.339,59.550 207.188,59.550 207.188,58.550 207.988,58.550 207.988,55.600 207.188,55.600 207.188,49.650 207.988,49.650 207.988,46.701 207.188,46.701 207.188,45.701" style="fill:none;stroke-width:0.050000mm;stroke:black"/>
<polygon points="212.389,45.701 212.389,46.701 211.589,46.701 211.589,49.650 212.389,49.650 212.389,55.600 211.589,55.600 211.589,58.550 212.389,58.550 212.389,59.550 226.238,59.550 226.238,58.550 227.038,58.550 227.038,55.600 226.238,55.600 226.238,49.650 227.038,49.650 227.038,46.701 226.238,46.701 226.238,45.701" style="fill:none;stroke-width:0.050000mm;stroke:black"/>
<polygon points="231.438,45.701 231.438,46.701 230.639,46.701 230.639,49.650 231.438,49.650 231.438,55.600 230.639,55.600 230.639,58.550 231.438,58.550 231.438,59.550 245.288,59.550 245.288,58.550 246.089,58.550 246.089,55.600 245.288,55.600 245.288,49.650 246.089,49.650 246.089,46.701 245.288,46.701 245.288,45.701" style="fill:none;stroke-width:0.050000mm;stroke:black"/>
<polygon points="133.260,51.651 132.974,51.796 132.747,52.023 132.601,52.309 132.551,52.626 132.601,52.942 132.747,53.228 132.974,53.456 133.260,53.600 133.577,53.651 133.892,53.600 134.178,53.456 134.406,53.228 134.550,52.942 134.601,52.626 134.550,52.309 134.406,52.023 134.178,51.796 133.892,51.651 133.577,51.602" style="fill:none;stroke-width:0.050000mm;stroke:black"/>
<polygon points="12.364,26.651 12.364,27.651 11.564,27.651 11.564,30.601 12.364,30.601 12.364,36.550 11.564,36.550 11.564,39.501 12.364,39.501 12.364,40.501 26.214,40.501 26.214,39.501 27.014,39.501 27.014,36.550 26.214,36.550 26.214,30.601 27.014,30.601 27.014,27.651 26.214,27.651 26.214,26.651" style="fill:none;stroke-width:0.050000mm;stroke:black"/>
<polygon points="36.175,26.651 36.175,27.651 35.376,27.651 35.376,30.601 36.175,30.601 36.175,36.550 35.376,36.550 35.376,39.501 36.175,39.501 36.175,40.501 50.026,40.501 50.026,39.501 50.826,39.501 50.826,36.550 50.026,36.550 50.026,30.601 50.826,30.601 50.826,27.651 50.026,27.651 50.026,26.651" style="fill:none;stroke-width:0.050000mm;stroke:black"/>
<polygon points="55.226,26.651 55.226,27.651 54.425,27.651 54.425,30.601 55.226,30.601 55.226,36.550 54.425,36.550 54.425,39.501 55.226,39.501 55.226,40.501 69.076,40.501 69.076,39.501 69.876,39.501 69.876,36.550 69.076,36.550 69.076,30.601 69.876,30.601 69.876,27.651 69.076,27.651 69.076,26.651" style="fill:none;stroke-width:0.050000mm;stroke:black"/>
<polygon points="74.276,26.651 74.276,27.651 73.475,27.651 73.475,30.601 74.276,30.601 74.276,36.550 73.475,36.550 73.475,39.501 74.276,39.501 74.276,40.501 88.126,40.501 88.126,39.501 88.925,39.501 88.925,36.550 88.126,36.550 88.126,30.601 88.925,30.601 88.925,27.651 88.126,27.651 88.126,26.651" style="fill:none;stroke-width:0.050000mm;stroke:black"/>
<polygon points="93.326,26.651 93.326,27.651 92.526,27.651 92.526,30.601 93.326,30.601 93.326,36.550 92.526,36.550 92.526,39.501 93.326,39.501 93.326,40.501 107.175,40.501 107.175,39.501 107.975,39.501 107.975,36.550 107.175,36.550 107.175,30.601 107.975,30.601 107.975,27.651 107.175,27.651 107.175,26.651" style="fill:none;stroke-width:0.050000mm;stroke:black"/>
<polygon points="112.376,26.651 112.376,27.651 111.576,27.651 111.576,30.601 112.376,30.601 112.376,36.550 111.576,36.550 111.576,39.501 112.376,39.501 112.376,40.501 126.225,40.501 126.225,39.501 127.026,39.501 127.026,36.550 126.225,36.550 126.225,30.601 127.026,30.601 127.026,27.651 126.225,27.651 126.225,26.651" style="fill:none;stroke-width:0.050000mm;stroke:black"/>
<polygon points="131.425,26.651 131.425,27.651 130.625,27.651 130.625,30.601 131.425,30.601 131.425,36.550 130.625,36.550 130.625,39.501 131.425,39.501 131.425,40.501 145.276,40.501 145.276,39.501 146.075,39.501 146.075,36.550 145.276,36.550 145.276,30.601 146.075,30.601 146.075,27.651 145.276,27.651 145.276,26.651" style="fill:none;stroke-width:0.050000mm;stroke:black"/>
<polygon points="150.476,26.651 150.476,27.651 149.675,27.651 149.675,30.601 150.476,30.601 150.476,36.550 149.675,36.550 149.675,39.501 150.476,39.501 150.476,40.501 164.325,40.501 164.325,39.501 165.125,39.501 165.125,36.550 164.325,36.550 164.325,30.601 165.125,30.601 165.125,27.651 164.325,27.651 164.325,26.651" style="fill:none;stroke-width:0.050000mm;stroke:black"/>
<polygon points="169.526,26.651 169.526,27.651 168.726,27.651 168.726,30.601 169.526,30.601 169.526,36.550 168.726,36.550 168.726,39.501 169.526,39.501 169.526,40.501 183.375,40.501 183.375,39.501 184.175,39.501 184.175,36.550 183.375,36.550 183.375,30.601 184.175,30.601 184.175,27.651 183.375,27.651 183.375,26.651" style="fill:none;stroke-width:0.050000mm;stroke:black"/>
<polygon points="188.575,26.651 188.575,27.651 187.776,27.651 187.776,30.601 188.575,30.601 188.575,36.550 187.776,36.550 187.776,39.501 188.575,39.501 188.575,40.501 202.425,40.501 202.425,39.501 203.226,39.501 203.226,36.550 202.425,36.550 202.425,30.601 203.226,30.601 203.226,27.651 202.425,27.651 202.425,26.651" style="fill:none;stroke-width:0.050000mm;stroke:black"/>
<polygon points="207.625,26.651 207.625,27.651 206.825,27.651 206.825,30.601 207.625,30.601 207.625,36.550 206.825,36.550 206.825,39.501 207.625,39.501 207.625,40.501 221.476,40.501 221.476,39.501 222.276,39.501 222.276,36.550 221.476,36.550 221.476,30.601 222.276,30.601 222.276,27.651 221.476,27.651 221.476,26.651" style="fill:none;stroke-width:0.050000mm;stroke:black"/>
<polygon points="226.675,26.651 226.675,27.651 225.875,27.651 225.875,30.601 226.675,30.601 226.675,36.550 225.875,36.550 225.875,39.501 226.675,39.501 226.675,40.501 240.526,40.501 240.526,39.501 241.325,39.501 241.325,36.550 240.526,36.550 240.526,30.601 241.325,30.601 241.325,27.651 240.526,27.651 240.526,26.651" style="fill:none;stroke-width:0.050000mm;stroke:black"/>
<polygon points="245.726,26.651 245.726,27.651 244.925,27.651 244.925,30.601 245.726,30.601 245.726,36.550 244.925,36.550 244.925,39.501 245.726,39.501 245.726,40.501 259.575,40.501 259.575,39.501 260.375,39.501 260.375,36.550 259.575,36.550 259.575,30.601 260.375,30.601 260.375,27.651 259.575,27.651 259.575,26.651" style="fill:none;stroke-width:0.050000mm;stroke:black"/>
<polygon points="269.538,26.651 269.538,27.651 268.738,27.651 268.738,30.601 269.538,30.601 269.538,36.550 268.738,36.550 268.738,39.501 269.538,39.501 269.538,40.501 283.388,40.501 283.388,39.501 284.188,39.501 284.188,36.550 283.388,36.550 283.388,30.601 284.188,30.601 284.188,27.651 283.388,27.651 283.388,26.651" style="fill:none;stroke-width:0.050000mm;stroke:black"/>
<polygon points="30.260,32.251 29.974,32.397 29.747,32.623 29.602,32.909 29.552,33.227 29.602,33.543 29.747,33.829 29.974,34.055 30.260,34.201 30.577,34.251 30.893,34.201 31.179,34.055 31.406,33.829 31.551,33.543 31.602,33.227 31.551,32.909 31.406,32.623 31.179,32.397 30.893,32.251 30.577,32.201" style="fill:none;stroke-width:0.050000mm;stroke:black"/>
<polygon points="265.109,32.251 264.823,32.397 264.596,32.623 264.452,32.909 264.401,33.227 264.452,33.543 264.596,33.829 264.823,34.055 265.109,34.201 265.426,34.251 265.743,34.201 266.029,34.055 266.255,33.829 266.400,33.543 266.452,33.227 266.400,32.909 266.255,32.623 266.029,32.397 265.743,32.251 265.426,32.201" style="fill:none;stroke-width:0.050000mm;stroke:black"/>
<polygon points="7.601,7.600 7.601,8.601 6.801,8.601 6.801,11.550 7.601,11.550 7.601,17.500 6.801,17.500 6.801,20.450 7.601,20.450 7.601,21.450 21.451,21.450 21.451,20.450 22.251,20.450 22.251,17.500 21.451,17.500 21.451,11.550 22.251,11.550 22.251,8.601 21.451,8.601 21.451,7.600" style="fill:none;stroke-width:0.050000mm;stroke:black"/>
<polygon points="26.651,7.600 26.651,8.601 25.851,8.601 25.851,11.550 26.651,11.550 26.651,17.500 25.851,17.500 25.851,20.450 26.651,20.450 26.651,21.450 40.501,21.450 40.501,20.450 41.300,20.450 41.300,17.500 40.501,17.500 40.501,11.550 41.300,11.550 41.300,8.601 40.501,8.601 40.501,7.600" style="fill:none;stroke-width:0.050000mm;stroke:black"/>
<polygon points="45.701,7.600 45.701,8.601 44.901,8.601 44.901,11.550 45.701,11.550 45.701,17.500 44.901,17.500 44.901,20.450 45.701,20.450 45.701,21.450 59.550,21.450 59.550,20.450 60.351,20.450 60.351,17.500 59.550,17.500 59.550,11.550 60.351,11.550 60.351,8.601 59.550,8.601 59.550,7.600" style="fill:none;stroke-width:0.050000mm;stroke:black"/>
<polygon points="64.751,7.600 64.751,8.601 63.951,8.601 63.951,11.550 64.751,11.550 64.751,17.500 63.951,17.500 63.951,20.450 64.751,20.450 64.751,21.450 78.600,21.450 78.600,20.450 79.401,20.450 79.401,17.500 78.600,17.500 78.600,11.550 79.401,11.550 79.401,8.601 78.600,8.601 78.600,7.600" style="fill:none;stroke-width:0.050000mm;stroke:black"/>
<polygon points="83.800,7.600 83.800,8.601 83.001,8.601 83.001,11.550 83.800,11.550 83.800,17.500 83.001,17.500 83.001,20.450 83.800,20.450 83.800,21.450 97.651,21.450 97.651,20.450 98.451,20.450 98.451,17.500 97.651,17.500 97.651,11.550 98.451,11.550 98.451,8.601 97.651,8.601 97.651,7.600" style="fill:none;stroke-width:0.050000mm;stroke:black"/>
<polygon points="102.850,7.600 102.850,8.601 102.050,8.601 102.050,11.550 102.850,11.550 102.850,17.500 102.050,17.500 102.050,20.450 102.850,20.450 102.850,21.450 116.701,21.450 116.701,20.450 117.501,20.450 117.501,17.500 116.701,17.500 116.701,11.550 117.501,11.550 117.501,8.601 116.701,8.601 116.701,7.600" style="fill:none;stroke-width:0.050000mm;stroke:black"/>
<polygon points="121.901,7.600 121.901,8.601 121.100,8.601 121.100,11.550 121.901,11.550 121.901,17.500 121.100,17.500 121.100,20.450 121.901,20.450 121.901,21.450 135.750,21.450 135.750,20.450 136.550,20.450 136.550,17.500 135.750,17.500 135.750,11.550 136.550,11.550 136.550,8.601 135.750,8.601 135.750,7.600" style="fill:none;stroke-width:0.050000mm;stroke:black"/>
<polygon points="140.950,7.600 140.950,8.601 140.151,8.601 140.151,11.550 140.950,11.550 140.950,17.500 140.151,17.500 140.151,20.450 140.950,20.450 140.950,21.450 154.800,21.450 154.800,20.450 155.601,20.450 155.601,17.500 154.800,17.500 154.800,11.550 155.601,11.550 155.601,8.601 154.800,8.601 154.800,7.600" style="fill:none;stroke-width:0.050000mm;stroke:black"/>
<polygon points="160.000,7.600 160.000,8.601 159.200,8.601 159.200,11.550 160.000,11.550 160.000,17.500 159.200,17.500 159.200,20.450 160.000,20.450 160.000,21.450 173.851,21.450 173.851,20.450 174.651,20.450 174.651,17.500 173.851,17.500 173.851,11.550 174.651,11.550 174.651,8.601 173.851,8.601 173.851,7.600" style="fill:none;stroke-width:0.050000mm;stroke:black"/>
<polygon points="179.050,7.600 179.050,8.601 178.250,8.601 178.250,11.550 179.050,11.550 179.050,17.500 178.250,17.500 178.250,20.450 179.050,20.450 179.050,21.450 192.901,21.450 192.901,20.450 193.700,20.450 193.700,17.500 192.901,17.500 192.901,11.550 193.700,11.550 193.700,8.601 192.901,8.601 192.901,7.600" style="fill:none;stroke-width:0.050000mm;stroke:black"/>
<polygon points="198.101,7.600 198.101,8.601 197.300,8.601 197.300,11.550 198.101,11.550 198.101,17.500 197.300,17.500 197.300,20.450 198.101,20.450 198.101,21.450 211.950,21.450 211.950,20.450 212.750,20.450 212.750,17.500 211.950,17.500 211.950,11.550 212.750,11.550 212.750,8.601 211.950,8.601 211.950,7.600" style="fill:none;stroke-width:0.050000mm;stroke:black"/>
<polygon points="217.151,7.600 217.151,8.601 216.351,8.601 216.351,11.550 217.151,11.550 217.151,17.500 216.351,17.500 216.351,20.450 217.151,20.450 217.151,21.450 231.000,21.450 231.000,20.450 231.800,20.450 231.800,17.500 231.000,17.500 231.000,11.550 231.800,11.550 231.800,8.601 231.000,8.601 231.000,7.600" style="fill:none;stroke-width:0.050000mm;stroke:black"/>
<polygon points="236.200,7.600 236.200,8.601 235.401,8.601 235.401,11.550 236.200,11.550 236.200,17.500 235.401,17.500 235.401,20.450 236.200,20.450 236.200,21.450 250.050,21.450 250.050,20.450 250.851,20.450 250.851,17.500 250.050,17.500 250.050,11.550 250.851,11.550 250.851,8.601 250.050,8.601 250.050,7.600" style="fill:none;stroke-width:0.050000mm;stroke:black"/>
<polygon points="255.250,7.600 255.250,8.601 254.450,8.601 254.450,11.550 255.250,11.550 255.250,17.500 254.450,17.500 254.450,20.450 255.250,20.450 255.250,21.450 269.101,21.450 269.101,20.450 269.900,20.450 269.900,17.500 269.101,17.500 269.101,11.550 269.900,11.550 269.900,8.601 269.101,8.601 269.101,7.600" style="fill:none;stroke-width:0.050000mm;stroke:black"/>
<polygon points="274.300,7.600 274.300,8.601 273.500,8.601 273.500,11.550 274.300,11.550 274.300,17.500 273.500,17.500 273.500,20.450 274.300,20.450 274.300,21.450 288.150,21.450 288.150,20.450 288.950,20.450 288.950,17.500 288.150,17.500 288.150,11.550 288.950,11.550 288.950,8.601 288.150,8.601 288.150,7.600" style="fill:none;stroke-width:0.050000mm;stroke:black"/>
</svg>
